<?xml version="1.0" encoding="utf-8"?>
<!-- Generator: Adobe Illustrator 19.1.0, SVG Export Plug-In . SVG Version: 6.00 Build 0)  -->
<svg version="1.1" xmlns="http://www.w3.org/2000/svg" xmlns:xlink="http://www.w3.org/1999/xlink" x="0px" y="0px"
	 viewBox="0 0 214.3 193.6" style="enable-background:new 0 0 214.3 193.6;" xml:space="preserve">
<style type="text/css">
	.st0{fill:#131312;}
	.st1{fill:none;stroke:#000000;stroke-width:0.25;}
	.st2{fill:none;stroke:#131312;stroke-width:0.25;stroke-dasharray:1,1;}
	.st3{fill:none;stroke:#006699;stroke-width:2;stroke-linecap:round;}
	.st4{fill:none;stroke:#299951;}
	.st5{fill:none;stroke:#F90618;}
	.st6{fill:#48A0B5;stroke:#000000;stroke-width:0.5;}
</style>
<g id="_x3C_Layer_x3E_">
	<path class="st0" d="M62.1,165.9"/>
	<g>
		<path d="M207.6,148.5l2.7-3.2l-1.6-3.1h1.2l0.5,1.1c0.2,0.4,0.4,0.8,0.5,1.2l1.8-2.3h1.3l-2.6,3.1l1.6,3.1h-1.2l-0.6-1.3
			c-0.1-0.3-0.3-0.6-0.5-1l-1.9,2.3H207.6z"/>
	</g>
	<g>
		<path d="M50.9,12.7l0.1-1c0.2,0.1,0.4,0.1,0.6,0.1c0.2,0,0.4,0,0.5-0.1c0.2-0.1,0.4-0.4,0.6-0.7l0.3-0.6l-1-6.2h1l0.5,3.1
			c0.1,0.6,0.2,1.2,0.2,1.9l2.8-5h1.1l-4,7c-0.4,0.7-0.7,1.1-1,1.4s-0.6,0.3-1,0.3C51.4,12.8,51.2,12.8,50.9,12.7z"/>
	</g>
	<g>
		<g>
			<line class="st1" x1="0" y1="138.9" x2="208.2" y2="138.9"/>
			<g>
				<path d="M206.9,138.9l-1.6-2.7l0.1-0.1l4.4,1.8c1.5,0.3,3.1,0.7,4.6,1c-1.5,0.3-3.1,0.7-4.6,1l-4.4,1.8l-0.1,0L206.9,138.9z"/>
			</g>
		</g>
	</g>
	<g>
		<g>
			<line class="st1" x1="62" y1="193.6" x2="62" y2="9.8"/>
			<g>
				<path d="M62,11.1l-2.7,1.6l-0.1-0.1L61,8.3c0.3-1.5,0.7-3.1,1-4.6c0.3,1.5,0.7,3.1,1,4.6l1.8,4.4l0,0.1L62,11.1z"/>
			</g>
		</g>
	</g>
	<line class="st2" x1="155.3" y1="80" x2="155.3" y2="138.8"/>
	<line class="st2" x1="155.2" y1="80" x2="62.3" y2="80"/>
	<path class="st3" d="M22.7,165.9C93,148.6,152.3,124.3,173,27.9"/>
	<line class="st4" x1="184" y1="25.6" x2="123.8" y2="139"/>
	<line class="st5" x1="187" y1="47.5" x2="110.1" y2="138.8"/>
	<line class="st2" x1="124.2" y1="120.2" x2="61.8" y2="120.2"/>
	<line class="st2" x1="124" y1="119.9" x2="124" y2="138.8"/>
	<line class="st2" x1="110.1" y1="131.1" x2="110.1" y2="139.1"/>
	<line class="st2" x1="110.5" y1="131.2" x2="61.8" y2="131.2"/>
	<circle class="st6" cx="155.2" cy="79.9" r="1.9"/>
	<circle class="st6" cx="124" cy="120.1" r="1.9"/>
	<circle class="st6" cx="110" cy="131.6" r="1.9"/>
	<g>
		<g>
			<path d="M151.8,148.3l2.7-3.2l-1.6-3.1h1.2l0.5,1.1c0.2,0.4,0.4,0.8,0.5,1.2l1.8-2.3h1.3l-2.6,3.1l1.6,3.1H156l-0.6-1.3
				c-0.1-0.3-0.3-0.6-0.5-1l-1.9,2.3H151.8z"/>
		</g>
		<g>
			<path d="M158.2,148.7c0-0.7,0.1-1.2,0.2-1.6s0.3-0.7,0.6-1s0.6-0.3,1-0.3c0.3,0,0.6,0.1,0.8,0.2s0.4,0.3,0.6,0.5s0.3,0.5,0.4,0.9
				s0.1,0.8,0.1,1.4c0,0.7-0.1,1.2-0.2,1.6s-0.3,0.7-0.6,1s-0.6,0.3-1,0.3c-0.6,0-1-0.2-1.3-0.6
				C158.4,150.6,158.2,149.8,158.2,148.7z M159,148.7c0,0.9,0.1,1.6,0.3,1.9s0.5,0.5,0.8,0.5s0.6-0.2,0.8-0.5s0.3-0.9,0.3-1.9
				c0-0.9-0.1-1.6-0.3-1.9s-0.5-0.5-0.8-0.5c-0.3,0-0.6,0.1-0.8,0.4C159.1,147.1,159,147.8,159,148.7z"/>
		</g>
	</g>
	<g>
		<g>
			<path d="M40.7,83l1.1-5.4h-0.9l0.2-0.8H42l0.2-0.9c0.1-0.4,0.2-0.8,0.3-1s0.3-0.4,0.5-0.5s0.5-0.2,0.9-0.2c0.3,0,0.7,0.1,1.2,0.2
				l-0.2,0.9c-0.4-0.1-0.7-0.1-0.9-0.1c-0.2,0-0.4,0.1-0.5,0.2s-0.2,0.3-0.3,0.7l-0.1,0.7h1.2l-0.2,0.8h-1.2L41.8,83H40.7z"/>
			<path d="M46.3,85.6c-0.6-0.7-1.1-1.6-1.5-2.6s-0.6-2-0.6-3.1c0-0.9,0.2-1.8,0.5-2.7c0.4-1,0.9-2,1.6-3h0.8
				c-0.5,0.8-0.8,1.4-0.9,1.7c-0.2,0.5-0.4,1.1-0.6,1.7c-0.2,0.7-0.3,1.5-0.3,2.2c0,1.9,0.6,3.8,1.8,5.6H46.3z"/>
			<path d="M47.5,83l2.7-3.2l-1.6-3.1h1.2l0.5,1.1c0.2,0.4,0.4,0.8,0.5,1.2l1.8-2.3h1.3L51.3,80l1.6,3.1h-1.2l-0.6-1.3
				c-0.1-0.3-0.3-0.6-0.5-1L48.8,83H47.5z"/>
			<path d="M58.3,85.6h-0.8c1.2-1.9,1.8-3.8,1.8-5.6c0-0.7-0.1-1.5-0.3-2.2c-0.1-0.6-0.3-1.1-0.6-1.7c-0.2-0.4-0.5-0.9-0.9-1.8h0.8
				c0.7,1,1.3,2,1.6,3c0.3,0.9,0.5,1.7,0.5,2.7c0,1.1-0.2,2.1-0.6,3.1S58.9,84.8,58.3,85.6z"/>
		</g>
		<g>
			<path d="M53.6,82.7c0-0.7,0.1-1.2,0.2-1.6s0.3-0.7,0.6-1s0.6-0.3,1-0.3c0.3,0,0.6,0.1,0.8,0.2s0.4,0.3,0.6,0.5s0.3,0.5,0.4,0.9
				s0.1,0.8,0.1,1.4c0,0.7-0.1,1.2-0.2,1.6s-0.3,0.7-0.6,1s-0.6,0.3-1,0.3c-0.6,0-1-0.2-1.3-0.6C53.8,84.6,53.6,83.8,53.6,82.7z
				 M54.3,82.7c0,0.9,0.1,1.6,0.3,1.9s0.5,0.5,0.8,0.5s0.6-0.2,0.8-0.5s0.3-0.9,0.3-1.9c0-0.9-0.1-1.6-0.3-1.9s-0.5-0.5-0.8-0.5
				c-0.3,0-0.6,0.1-0.8,0.4C54.5,81.1,54.3,81.8,54.3,82.7z"/>
		</g>
	</g>
	<g>
		<g>
			<path d="M40.7,121.5l1.1-5.4h-0.9l0.2-0.8H42l0.2-0.9c0.1-0.4,0.2-0.8,0.3-1s0.3-0.4,0.5-0.5s0.5-0.2,0.9-0.2
				c0.3,0,0.7,0.1,1.2,0.2l-0.2,0.9c-0.4-0.1-0.7-0.1-0.9-0.1c-0.2,0-0.4,0.1-0.5,0.2s-0.2,0.3-0.3,0.7l-0.1,0.7h1.2l-0.2,0.8h-1.2
				l-1.1,5.4H40.7z"/>
			<path d="M46.3,124.1c-0.6-0.7-1.1-1.6-1.5-2.6s-0.6-2-0.6-3.1c0-0.9,0.2-1.8,0.5-2.7c0.4-1,0.9-2,1.6-3h0.8
				c-0.5,0.8-0.8,1.4-0.9,1.7c-0.2,0.5-0.4,1.1-0.6,1.7c-0.2,0.7-0.3,1.5-0.3,2.2c0,1.9,0.6,3.8,1.8,5.6H46.3z"/>
			<path d="M47.5,121.5l2.7-3.2l-1.6-3.1h1.2l0.5,1.1c0.2,0.4,0.4,0.8,0.5,1.2l1.8-2.3h1.3l-2.6,3.1l1.6,3.1h-1.2l-0.6-1.3
				c-0.1-0.3-0.3-0.6-0.5-1l-1.9,2.3H47.5z"/>
			<path d="M58.3,124.1h-0.8c1.2-1.9,1.8-3.8,1.8-5.6c0-0.7-0.1-1.5-0.3-2.2c-0.1-0.6-0.3-1.1-0.6-1.7c-0.2-0.4-0.5-0.9-0.9-1.8h0.8
				c0.7,1,1.3,2,1.6,3c0.3,0.9,0.5,1.7,0.5,2.7c0,1.1-0.2,2.1-0.6,3.1S58.9,123.3,58.3,124.1z"/>
		</g>
		<g>
			<path d="M56,124.2h-0.7v-4.5c-0.2,0.2-0.4,0.3-0.7,0.5s-0.5,0.3-0.7,0.4v-0.7c0.4-0.2,0.7-0.4,1-0.7s0.5-0.5,0.6-0.8H56V124.2z"
				/>
		</g>
	</g>
	<g>
		<g>
			<path d="M120.6,148.3l2.7-3.2l-1.6-3.1h1.2l0.5,1.1c0.2,0.4,0.4,0.8,0.5,1.2l1.8-2.3h1.3l-2.6,3.1l1.6,3.1h-1.2l-0.6-1.3
				c-0.1-0.3-0.3-0.6-0.5-1l-1.9,2.3H120.6z"/>
		</g>
		<g>
			<path d="M129.3,151.5h-0.7v-4.5c-0.2,0.2-0.4,0.3-0.7,0.5s-0.5,0.3-0.7,0.4v-0.7c0.4-0.2,0.7-0.4,1-0.7s0.5-0.5,0.6-0.8h0.5
				V151.5z"/>
		</g>
	</g>
	<g>
		<g>
			<path d="M106.5,148.3l2.7-3.2l-1.6-3.1h1.2l0.5,1.1c0.2,0.4,0.4,0.8,0.5,1.2l1.8-2.3h1.3l-2.6,3.1l1.6,3.1h-1.2l-0.6-1.3
				c-0.1-0.3-0.3-0.6-0.5-1l-1.9,2.3H106.5z"/>
		</g>
		<g>
			<path d="M116.9,150.9v0.7h-3.8c0-0.2,0-0.3,0.1-0.5c0.1-0.3,0.3-0.5,0.5-0.8s0.5-0.5,0.9-0.9c0.6-0.5,1-0.9,1.3-1.2
				s0.3-0.6,0.3-0.8c0-0.3-0.1-0.5-0.3-0.7s-0.5-0.3-0.8-0.3c-0.3,0-0.6,0.1-0.8,0.3s-0.3,0.5-0.3,0.8l-0.7-0.1
				c0-0.5,0.2-0.9,0.6-1.2s0.8-0.4,1.3-0.4c0.5,0,1,0.2,1.3,0.5s0.5,0.7,0.5,1.1c0,0.2,0,0.5-0.1,0.7s-0.2,0.5-0.5,0.7
				s-0.6,0.6-1.1,1c-0.4,0.4-0.7,0.6-0.8,0.7s-0.2,0.3-0.3,0.4H116.9z"/>
		</g>
	</g>
	<g>
		<g>
			<path d="M40.7,135.2l1.1-5.4h-0.9l0.2-0.8H42l0.2-0.9c0.1-0.4,0.2-0.8,0.3-1s0.3-0.4,0.5-0.5s0.5-0.2,0.9-0.2
				c0.3,0,0.7,0.1,1.2,0.2l-0.2,0.9c-0.4-0.1-0.7-0.1-0.9-0.1c-0.2,0-0.4,0.1-0.5,0.2s-0.2,0.3-0.3,0.7l-0.1,0.7h1.2l-0.2,0.8h-1.2
				l-1.1,5.4H40.7z"/>
			<path d="M46.3,137.7c-0.6-0.7-1.1-1.6-1.5-2.6s-0.6-2-0.6-3.1c0-0.9,0.2-1.8,0.5-2.7c0.4-1,0.9-2,1.6-3h0.8
				c-0.5,0.8-0.8,1.4-0.9,1.7c-0.2,0.5-0.4,1.1-0.6,1.7c-0.2,0.7-0.3,1.5-0.3,2.2c0,1.9,0.6,3.8,1.8,5.6H46.3z"/>
			<path d="M47.5,135.2l2.7-3.2l-1.6-3.1h1.2l0.5,1.1c0.2,0.4,0.4,0.8,0.5,1.2l1.8-2.3h1.3l-2.6,3.1l1.6,3.1h-1.2l-0.6-1.3
				c-0.1-0.3-0.3-0.6-0.5-1l-1.9,2.3H47.5z"/>
			<path d="M58.3,137.7h-0.8c1.2-1.9,1.8-3.8,1.8-5.6c0-0.7-0.1-1.5-0.3-2.2c-0.1-0.6-0.3-1.1-0.6-1.7c-0.2-0.4-0.5-0.9-0.9-1.8h0.8
				c0.7,1,1.3,2,1.6,3c0.3,0.9,0.5,1.7,0.5,2.7c0,1.1-0.2,2.1-0.6,3.1S58.9,137,58.3,137.7z"/>
		</g>
		<g>
			<path d="M57.2,137.5v0.7h-3.8c0-0.2,0-0.3,0.1-0.5c0.1-0.3,0.3-0.5,0.5-0.8s0.5-0.5,0.9-0.9c0.6-0.5,1-0.9,1.3-1.2
				s0.3-0.6,0.3-0.8c0-0.3-0.1-0.5-0.3-0.7s-0.5-0.3-0.8-0.3c-0.3,0-0.6,0.1-0.8,0.3s-0.3,0.5-0.3,0.8l-0.7-0.1
				c0-0.5,0.2-0.9,0.6-1.2s0.8-0.4,1.3-0.4c0.5,0,1,0.2,1.3,0.5s0.5,0.7,0.5,1.1c0,0.2,0,0.5-0.1,0.7s-0.2,0.5-0.5,0.7
				s-0.6,0.6-1.1,1c-0.4,0.4-0.7,0.6-0.8,0.7s-0.2,0.3-0.3,0.4H57.2z"/>
		</g>
	</g>
	<g>
		<path d="M98.9,146.5l1.1,0.1c-0.3,0.8-0.6,1.4-1.1,1.7s-1,0.6-1.7,0.6c-0.7,0-1.2-0.2-1.6-0.7s-0.6-1-0.6-1.8c0-0.7,0.1-1.3,0.4-2
			s0.7-1.2,1.2-1.5s1.1-0.5,1.7-0.5c0.7,0,1.2,0.2,1.6,0.6s0.6,0.9,0.6,1.5l-1,0.1c0-0.4-0.1-0.7-0.3-0.9s-0.5-0.3-0.9-0.3
			c-0.4,0-0.8,0.1-1.1,0.4s-0.6,0.7-0.7,1.2s-0.3,1.1-0.3,1.6c0,0.5,0.1,0.9,0.4,1.2s0.5,0.4,0.9,0.4s0.7-0.1,1-0.4
			S98.7,147.1,98.9,146.5z"/>
	</g>
	<circle class="st6" cx="97.8" cy="139.1" r="1.9"/>
</g>
<g id="_x3C_Layer_x3E__1_">
	<g>
	</g>
</g>
</svg>
